# xmcd
#
# Track frame offsets: 
#        150
#        16567
#        40925
#        52708
#        75774
#        91948
#        109819
#        133523
#        149020
#        172548
#
# Disc length: 2520 seconds
#
# Revision: 0
# Processed by: cddbd v1.5.2PL0 Copyright (c) Steve Scherf et al.
# Submitted via: ExactAudioCopy v1.3
#
DISCID=6509d60a
DTITLE=Maxayn - Mindful
DYEAR=1973
DGENRE=R&B
TTITLE0=Moan To The Music
TTITLE1=Love Is Near
TTITLE2=Good Things
TTITLE3=Stone Crazy
TTITLE4=Tellin' You
TTITLE5=Feelin'
TTITLE6=The Answer
TTITLE7=Check Out Your Mind
TTITLE8=I Want To Rest My Mind
TTITLE9=Travellin'
EXTD=
EXTT0=
EXTT1=
EXTT2=
EXTT3=
EXTT4=
EXTT5=
EXTT6=
EXTT7=
EXTT8=
EXTT9=
PLAYORDER=
